<?xml version="1.0" standalone="yes"?>

<svg version="1.1" viewBox="0.0 0.0 1022.4330708661417 359.1417322834646" fill="none" stroke="none" stroke-linecap="square" stroke-miterlimit="10" xmlns="http://www.w3.org/2000/svg" xmlns:xlink="http://www.w3.org/1999/xlink"><clipPath id="p.0"><path d="m0 0l1022.43304 0l0 359.14172l-1022.43304 0l0 -359.14172z" clip-rule="nonzero"></path></clipPath><g clip-path="url(#p.0)"><path fill="#000000" fill-opacity="0.0" d="m0 0l1022.43304 0l0 359.14172l-1022.43304 0z" fill-rule="evenodd"></path><path fill="#f4cccc" d="m154.66011 9.132545l139.46959 0l11.743011 11.743017l0 58.713676l-151.2126 0z" fill-rule="evenodd"></path><path stroke="#000000" stroke-width="1.0" stroke-linejoin="round" stroke-linecap="butt" d="m154.66011 9.132545l139.46959 0l11.743011 11.743017l0 58.713676l-151.2126 0z" fill-rule="evenodd"></path><path fill="#000000" d="m187.89648 54.21665l0 -13.359375l9.015625 0l0 1.578125l-7.25 0l0 4.140625l6.265625 0l0 1.578125l-6.265625 0l0 6.0625l-1.765625 0zm17.411606 -1.1875q-0.921875 0.765625 -1.765625 1.09375q-0.828125 0.3125 -1.796875 0.3125q-1.59375 0 -2.453125 -0.78125q-0.859375 -0.78125 -0.859375 -1.984375q0 -0.71875 0.328125 -1.296875q0.328125 -0.59375 0.84375 -0.9375q0.53125 -0.359375 1.1875 -0.546875q0.46875 -0.125 1.453125 -0.25q1.984375 -0.234375 2.921875 -0.5625q0.015625 -0.34375 0.015625 -0.421875q0 -1.0 -0.46875 -1.421875q-0.625 -0.546875 -1.875 -0.546875q-1.15625 0 -1.703125 0.40625q-0.546875 0.40625 -0.8125 1.421875l-1.609375 -0.21875q0.21875 -1.015625 0.71875 -1.640625q0.5 -0.640625 1.453125 -0.984375q0.953125 -0.34375 2.1875 -0.34375q1.25 0 2.015625 0.296875q0.78125 0.28125 1.140625 0.734375q0.375 0.4375 0.515625 1.109375q0.078125 0.421875 0.078125 1.515625l0 2.1875q0 2.28125 0.109375 2.890625q0.109375 0.59375 0.40625 1.15625l-1.703125 0q-0.265625 -0.515625 -0.328125 -1.1875zm-0.140625 -3.671875q-0.890625 0.375 -2.671875 0.625q-1.015625 0.140625 -1.4375 0.328125q-0.421875 0.1875 -0.65625 0.53125q-0.21875 0.34375 -0.21875 0.78125q0 0.65625 0.5 1.09375q0.5 0.4375 1.453125 0.4375q0.9375 0 1.671875 -0.40625q0.75 -0.421875 1.09375 -1.140625q0.265625 -0.5625 0.265625 -1.640625l0 -0.609375zm10.516342 1.3125l1.609375 0.21875q-0.265625 1.65625 -1.359375 2.609375q-1.078125 0.9375 -2.671875 0.9375q-1.984375 0 -3.1875 -1.296875q-1.203125 -1.296875 -1.203125 -3.71875q0 -1.578125 0.515625 -2.75q0.515625 -1.171875 1.578125 -1.75q1.0625 -0.59375 2.3125 -0.59375q1.578125 0 2.578125 0.796875q1.0 0.796875 1.28125 2.265625l-1.59375 0.234375q-0.234375 -0.96875 -0.8125 -1.453125q-0.578125 -0.5 -1.390625 -0.5q-1.234375 0 -2.015625 0.890625q-0.78125 0.890625 -0.78125 2.8125q0 1.953125 0.75 2.84375q0.75 0.875 1.953125 0.875q0.96875 0 1.609375 -0.59375q0.65625 -0.59375 0.828125 -1.828125zm9.64064 0.4375l1.6875 0.203125q-0.40625 1.484375 -1.484375 2.3125q-1.078125 0.8125 -2.765625 0.8125q-2.125 0 -3.375 -1.296875q-1.2343903 -1.3125 -1.2343903 -3.671875q0 -2.453125 1.2500153 -3.796875q1.265625 -1.34375 3.265625 -1.34375q1.9375 0 3.15625 1.328125q1.234375 1.3125 1.234375 3.703125q0 0.15625 0 0.4375l-7.21875 0q0.09375 1.59375 0.90625 2.453125q0.8125 0.84375 2.015625 0.84375q0.90625 0 1.546875 -0.46875q0.640625 -0.484375 1.015625 -1.515625zm-5.390625 -2.65625l5.40625 0q-0.109375 -1.21875 -0.625 -1.828125q-0.78125 -0.953125 -2.03125 -0.953125q-1.125 0 -1.90625 0.765625q-0.765625 0.75 -0.84375 2.015625zm10.641342 5.765625l-1.515625 0l0 -13.359375l1.640625 0l0 4.765625q1.046875 -1.296875 2.65625 -1.296875q0.890625 0 1.6875 0.359375q0.796875 0.359375 1.3125 1.015625q0.515625 0.640625 0.796875 1.5625q0.296875 0.921875 0.296875 1.96875q0 2.484375 -1.234375 3.84375q-1.21875 1.359375 -2.953125 1.359375q-1.703125 0 -2.6875 -1.4375l0 1.21875zm-0.015625 -4.90625q0 1.734375 0.484375 2.515625q0.765625 1.265625 2.09375 1.265625q1.078125 0 1.859375 -0.9375q0.78125 -0.9375 0.78125 -2.78125q0 -1.890625 -0.75 -2.796875q-0.75 -0.90625 -1.828125 -0.90625q-1.0625 0 -1.859375 0.9375q-0.78125 0.9375 -0.78125 2.703125zm8.281967 0.0625q0 -2.6875 1.484375 -3.96875q1.25 -1.078125 3.046875 -1.078125q2.0 0 3.265625 1.3125q1.265625 1.296875 1.265625 3.609375q0 1.859375 -0.5625 2.9375q-0.5625 1.0625 -1.640625 1.65625q-1.0625 0.59375 -2.328125 0.59375q-2.03125 0 -3.28125 -1.296875q-1.25 -1.3125 -1.25 -3.765625zm1.6875 0q0 1.859375 0.796875 2.796875q0.8125 0.921875 2.046875 0.921875q1.21875 0 2.03125 -0.921875q0.8125 -0.9375 0.8125 -2.84375q0 -1.796875 -0.8125 -2.71875q-0.8125 -0.921875 -2.03125 -0.921875q-1.234375 0 -2.046875 0.921875q-0.796875 0.90625 -0.796875 2.765625zm8.688217 0q0 -2.6875 1.484375 -3.96875q1.25 -1.078125 3.046875 -1.078125q2.0 0 3.265625 1.3125q1.265625 1.296875 1.265625 3.609375q0 1.859375 -0.5625 2.9375q-0.5625 1.0625 -1.640625 1.65625q-1.0625 0.59375 -2.328125 0.59375q-2.03125 0 -3.28125 -1.296875q-1.25 -1.3125 -1.25 -3.765625zm1.6875 0q0 1.859375 0.796875 2.796875q0.8125 0.921875 2.046875 0.921875q1.21875 0 2.03125 -0.921875q0.8125 -0.9375 0.8125 -2.84375q0 -1.796875 -0.8125 -2.71875q-0.8125 -0.921875 -2.03125 -0.921875q-1.234375 0 -2.046875 0.921875q-0.796875 0.90625 -0.796875 2.765625zm9.297577 4.84375l0 -13.359375l1.640625 0l0 7.625l3.890625 -3.9375l2.109375 0l-3.6875 3.59375l4.0625 6.078125l-2.015625 0l-3.203125 -4.953125l-1.15625 1.125l0 3.828125l-1.640625 0z" fill-rule="nonzero"></path><path fill="#ffffff" d="m16.329397 44.360893l0 0c0 -14.002811 11.351521 -25.354332 25.35433 -25.354332c14.002811 0 25.354328 11.351521 25.354328 25.354332c0 14.002808 -11.351517 25.354332 -25.354328 25.354332c-14.00281 0 -25.35433 -11.351524 -25.35433 -25.354332z" fill-rule="evenodd"></path><path fill="#cbcbcb" d="m30.919874 36.77807c0 -1.4586258 1.1824512 -2.6410751 2.641077 -2.6410751c1.4586258 0 2.6410751 1.1824493 2.6410751 2.6410751c0 1.4586258 -1.1824493 2.6410751 -2.6410751 2.6410751c-1.4586258 0 -2.641077 -1.1824493 -2.641077 -2.6410751m16.245554 0c0 -1.4586258 1.1824493 -2.6410751 2.6410751 -2.6410751c1.4586258 0 2.6410751 1.1824493 2.6410751 2.6410751c0 1.4586258 -1.1824493 2.6410751 -2.6410751 2.6410751c-1.4586258 0 -2.6410751 -1.1824493 -2.6410751 -2.6410751" fill-rule="evenodd"></path><path fill="#000000" fill-opacity="0.0" d="m27.941513 55.418083q13.742214 9.437897 27.452335 0" fill-rule="evenodd"></path><path fill="#000000" fill-opacity="0.0" d="m16.329397 44.360893l0 0c0 -14.002811 11.351521 -25.354332 25.35433 -25.354332c14.002811 0 25.354328 11.351521 25.354328 25.354332c0 14.002808 -11.351517 25.354332 -25.354328 25.354332c-14.00281 0 -25.35433 -11.351524 -25.35433 -25.354332z" fill-rule="evenodd"></path><path stroke="#000000" stroke-width="1.0" stroke-linejoin="round" stroke-linecap="butt" d="m30.919874 36.77807c0 -1.4586258 1.1824512 -2.6410751 2.641077 -2.6410751c1.4586258 0 2.6410751 1.1824493 2.6410751 2.6410751c0 1.4586258 -1.1824493 2.6410751 -2.6410751 2.6410751c-1.4586258 0 -2.641077 -1.1824493 -2.641077 -2.6410751m16.245554 0c0 -1.4586258 1.1824493 -2.6410751 2.6410751 -2.6410751c1.4586258 0 2.6410751 1.1824493 2.6410751 2.6410751c0 1.4586258 -1.1824493 2.6410751 -2.6410751 2.6410751c-1.4586258 0 -2.6410751 -1.1824493 -2.6410751 -2.6410751" fill-rule="evenodd"></path><path stroke="#000000" stroke-width="1.0" stroke-linejoin="round" stroke-linecap="butt" d="m27.941513 55.418083q13.742214 9.437897 27.452335 0" fill-rule="evenodd"></path><path stroke="#000000" stroke-width="1.0" stroke-linejoin="round" stroke-linecap="butt" d="m16.329397 44.360893l0 0c0 -14.002811 11.351521 -25.354332 25.35433 -25.354332c14.002811 0 25.354328 11.351521 25.354328 25.354332c0 14.002808 -11.351517 25.354332 -25.354328 25.354332c-14.00281 0 -25.35433 -11.351524 -25.35433 -25.354332z" fill-rule="evenodd"></path><path fill="#d0e0e3" d="m486.88083 136.82283l157.50632 0c3.6621094E-4 0 7.324219E-4 1.5258789E-4 9.765625E-4 4.272461E-4c3.0517578E-4 2.593994E-4 4.272461E-4 6.2561035E-4 4.272461E-4 9.918213E-4l-0.0014038086 63.01671c0 6.9609528 -5.6430054 12.603928 -12.603943 12.603928l-157.50629 0l0 0c-7.9345703E-4 0 -0.0014343262 -6.4086914E-4 -0.0014343262 -0.0014190674l0.0014343262 -63.01671l0 0c0 -6.9609528 5.6429443 -12.603928 12.603912 -12.603928z" fill-rule="evenodd"></path><path stroke="#000000" stroke-width="1.0" stroke-linejoin="round" stroke-linecap="butt" d="m486.88083 136.82283l157.50632 0c3.6621094E-4 0 7.324219E-4 1.5258789E-4 9.765625E-4 4.272461E-4c3.0517578E-4 2.593994E-4 4.272461E-4 6.2561035E-4 4.272461E-4 9.918213E-4l-0.0014038086 63.01671c0 6.9609528 -5.6430054 12.603928 -12.603943 12.603928l-157.50629 0l0 0c-7.9345703E-4 0 -0.0014343262 -6.4086914E-4 -0.0014343262 -0.0014190674l0.0014343262 -63.01671l0 0c0 -6.9609528 5.6429443 -12.603928 12.603912 -12.603928z" fill-rule="evenodd"></path><path fill="#000000" d="m515.08014 181.55386l0 -13.359375l5.015625 0q1.53125 0 2.453125 0.40625q0.921875 0.40625 1.4375 1.25q0.53125 0.84375 0.53125 1.765625q0 0.859375 -0.46875 1.625q-0.453125 0.75 -1.390625 1.203125q1.203125 0.359375 1.859375 1.21875q0.65625 0.859375 0.65625 2.015625q0 0.9375 -0.40625 1.75q-0.390625 0.796875 -0.984375 1.234375q-0.578125 0.4375 -1.453125 0.671875q-0.875 0.21875 -2.15625 0.21875l-5.09375 0zm1.78125 -7.75l2.875 0q1.1875 0 1.6875 -0.140625q0.671875 -0.203125 1.015625 -0.671875q0.34375 -0.46875 0.34375 -1.171875q0 -0.65625 -0.328125 -1.15625q-0.3125 -0.515625 -0.90625 -0.703125q-0.59375 -0.1875 -2.03125 -0.1875l-2.65625 0l0 4.03125zm0 6.171875l3.3125 0q0.859375 0 1.203125 -0.0625q0.609375 -0.109375 1.015625 -0.359375q0.421875 -0.265625 0.6875 -0.75q0.265625 -0.484375 0.265625 -1.125q0 -0.75 -0.390625 -1.296875q-0.375 -0.546875 -1.0625 -0.765625q-0.671875 -0.234375 -1.953125 -0.234375l-3.078125 0l0 4.59375zm10.7717285 1.578125l0 -13.359375l9.65625 0l0 1.578125l-7.875 0l0 4.09375l7.375 0l0 1.5625l-7.375 0l0 4.546875l8.1875 0l0 1.578125l-9.96875 0zm12.4435425 0l0 -13.359375l5.921875 0q1.78125 0 2.703125 0.359375q0.9375 0.359375 1.484375 1.28125q0.5625 0.90625 0.5625 2.015625q0 1.40625 -0.921875 2.390625q-0.921875 0.96875 -2.84375 1.234375q0.703125 0.34375 1.078125 0.671875q0.765625 0.703125 1.453125 1.765625l2.328125 3.640625l-2.21875 0l-1.765625 -2.78125q-0.78125 -1.203125 -1.28125 -1.828125q-0.5 -0.640625 -0.90625 -0.890625q-0.390625 -0.265625 -0.796875 -0.359375q-0.296875 -0.078125 -0.984375 -0.078125l-2.046875 0l0 5.9375l-1.765625 0zm1.765625 -7.453125l3.796875 0q1.21875 0 1.890625 -0.25q0.6875 -0.265625 1.046875 -0.8125q0.359375 -0.546875 0.359375 -1.1875q0 -0.953125 -0.6875 -1.5625q-0.6875 -0.609375 -2.1875 -0.609375l-4.21875 0l0 4.421875zm11.660461 7.453125l0 -13.359375l1.8125 0l7.015625 10.484375l0 -10.484375l1.6875 0l0 13.359375l-1.8125 0l-7.015625 -10.5l0 10.5l-1.6875 0zm12.019836 0l5.125 -13.359375l1.90625 0l5.46875 13.359375l-2.015625 0l-1.546875 -4.046875l-5.59375 0l-1.46875 4.046875l-1.875 0zm3.859375 -5.484375l4.53125 0l-1.40625 -3.703125q-0.625 -1.6875 -0.9375 -2.765625q-0.265625 1.28125 -0.71875 2.546875l-1.46875 3.921875zm10.0841675 5.484375l0 -13.359375l5.921875 0q1.78125 0 2.703125 0.359375q0.9375 0.359375 1.484375 1.28125q0.5625 0.90625 0.5625 2.015625q0 1.40625 -0.921875 2.390625q-0.921875 0.96875 -2.84375 1.234375q0.703125 0.34375 1.078125 0.671875q0.765625 0.703125 1.453125 1.765625l2.328125 3.640625l-2.21875 0l-1.765625 -2.78125q-0.78125 -1.203125 -1.28125 -1.828125q-0.5 -0.640625 -0.90625 -0.890625q-0.390625 -0.265625 -0.796875 -0.359375q-0.296875 -0.078125 -0.984375 -0.078125l-2.046875 0l0 5.9375l-1.765625 0zm1.765625 -7.453125l3.796875 0q1.21875 0 1.890625 -0.25q0.6875 -0.265625 1.046875 -0.8125q0.359375 -0.546875 0.359375 -1.1875q0 -0.953125 -0.6875 -1.5625q-0.6875 -0.609375 -2.1875 -0.609375l-4.21875 0l0 4.421875zm11.676086 7.453125l0 -13.359375l4.609375 0q1.546875 0 2.375 0.203125q1.140625 0.25 1.953125 0.953125q1.0625 0.890625 1.578125 2.28125q0.53125 1.390625 0.53125 3.171875q0 1.515625 -0.359375 2.703125q-0.359375 1.171875 -0.921875 1.9375q-0.546875 0.765625 -1.203125 1.21875q-0.65625 0.4375 -1.59375 0.671875q-0.9375 0.21875 -2.140625 0.21875l-4.828125 0zm1.765625 -1.578125l2.859375 0q1.3125 0 2.0625 -0.234375q0.75 -0.25 1.203125 -0.703125q0.625 -0.625 0.96875 -1.6875q0.359375 -1.0625 0.359375 -2.578125q0 -2.09375 -0.6875 -3.21875q-0.6875 -1.125 -1.671875 -1.5q-0.703125 -0.28125 -2.28125 -0.28125l-2.8125 0l0 10.203125z" fill-rule="nonzero"></path><path fill="#000000" fill-opacity="0.0" d="m67.038055 44.360893l87.622055 0" fill-rule="evenodd"></path><path stroke="#000000" stroke-width="1.0" stroke-linejoin="round" stroke-linecap="butt" d="m67.038055 44.360893l81.622055 0" fill-rule="evenodd"></path><path fill="#000000" stroke="#000000" stroke-width="1.0" stroke-linecap="butt" d="m148.66011 46.012627l4.538086 -1.6517334l-4.538086 -1.6517334z" fill-rule="evenodd"></path><path fill="#000000" fill-opacity="0.0" d="m305.8727 44.360893c42.100677 0 63.150177 32.566925 84.201355 65.13386c21.051178 32.566925 42.104034 65.133865 84.2081 65.133865" fill-rule="evenodd"></path><path stroke="#000000" stroke-width="1.0" stroke-linejoin="round" stroke-linecap="butt" d="m305.8727 44.360893c42.100677 0 63.150177 32.566925 84.201355 65.13386c10.525604 16.283463 21.051605 32.566925 34.20923 44.779526c6.5787964 6.106308 13.815491 11.194885 22.039001 14.756897c4.1117554 1.7809906 8.470245 3.180359 13.116516 4.1344604c2.32312 0.47706604 4.718231 0.8428192 7.1903687 1.0892944c0.3090515 0.030792236 0.6192627 0.05973816 0.9306946 0.08680725l0.72662354 0.058532715" fill-rule="evenodd"></path><path fill="#000000" stroke="#000000" stroke-width="1.0" stroke-linecap="butt" d="m468.22363 176.0508l4.597687 -1.477829l-4.4719543 -1.8232422z" fill-rule="evenodd"></path><path fill="#f4cccc" d="m154.66011 139.40552l139.46959 0l11.743011 11.743011l0 58.71367l-151.2126 0z" fill-rule="evenodd"></path><path stroke="#000000" stroke-width="1.0" stroke-linejoin="round" stroke-linecap="butt" d="m154.66011 139.40552l139.46959 0l11.743011 11.743011l0 58.71367l-151.2126 0z" fill-rule="evenodd"></path><path fill="#000000" d="m192.77582 184.48961l0 -11.78125l-4.40625 0l0 -1.578125l10.578125 0l0 1.578125l-4.40625 0l0 11.78125l-1.765625 0zm14.411606 -3.109375l1.6875 0.203125q-0.40625 1.484375 -1.484375 2.3125q-1.078125 0.8125 -2.765625 0.8125q-2.125 0 -3.375 -1.296875q-1.234375 -1.3125 -1.234375 -3.671875q0 -2.453125 1.25 -3.796875q1.265625 -1.34375 3.265625 -1.34375q1.9375 0 3.15625 1.328125q1.234375 1.3125 1.234375 3.703125q0 0.15625 0 0.4375l-7.21875 0q0.09375 1.59375 0.90625 2.453125q0.8125 0.84375 2.015625 0.84375q0.90625 0 1.546875 -0.46875q0.640625 -0.484375 1.015625 -1.515625zm-5.390625 -2.65625l5.40625 0q-0.109375 -1.21875 -0.625 -1.828125q-0.78125 -0.953125 -2.03125 -0.953125q-1.125 0 -1.90625 0.765625q-0.765625 0.75 -0.84375 2.015625zm9.094467 5.765625l0 -13.359375l1.640625 0l0 13.359375l-1.640625 0zm10.816711 -3.109375l1.6875 0.203125q-0.40625 1.484375 -1.484375 2.3125q-1.078125 0.8125 -2.765625 0.8125q-2.1250153 0 -3.3750153 -1.296875q-1.234375 -1.3125 -1.234375 -3.671875q0 -2.453125 1.25 -3.796875q1.265625 -1.34375 3.2656403 -1.34375q1.9375 0 3.15625 1.328125q1.234375 1.3125 1.234375 3.703125q0 0.15625 0 0.4375l-7.2187653 0q0.09375 1.59375 0.90625 2.453125q0.8125 0.84375 2.0156403 0.84375q0.90625 0 1.546875 -0.46875q0.640625 -0.484375 1.015625 -1.515625zm-5.3906403 -2.65625l5.4062653 0q-0.109375 -1.21875 -0.625 -1.828125q-0.78125 -0.953125 -2.03125 -0.953125q-1.1250153 0 -1.9062653 0.765625q-0.765625 0.75 -0.84375 2.015625zm8.828857 6.5625l1.59375 0.234375q0.109375 0.75 0.5625 1.078125q0.609375 0.453125 1.671875 0.453125q1.140625 0 1.75 -0.453125q0.625 -0.453125 0.84375 -1.265625q0.125 -0.5 0.109375 -2.109375q-1.0625 1.265625 -2.671875 1.265625q-2.0 0 -3.09375 -1.4375q-1.09375 -1.4375 -1.09375 -3.453125q0 -1.390625 0.5 -2.5625q0.515625 -1.171875 1.453125 -1.796875q0.953125 -0.640625 2.25 -0.640625q1.703125 0 2.8125 1.375l0 -1.15625l1.515625 0l0 8.359375q0 2.265625 -0.46875 3.203125q-0.453125 0.9375 -1.453125 1.484375q-0.984375 0.546875 -2.453125 0.546875q-1.71875 0 -2.796875 -0.78125q-1.0625 -0.765625 -1.03125 -2.34375zm1.359375 -5.8125q0 1.90625 0.75 2.78125q0.765625 0.875 1.90625 0.875q1.125 0 1.890625 -0.859375q0.765625 -0.875 0.765625 -2.734375q0 -1.78125 -0.796875 -2.671875q-0.78125 -0.90625 -1.890625 -0.90625q-1.09375 0 -1.859375 0.890625q-0.765625 0.875 -0.765625 2.625zm9.313217 5.015625l0 -9.671875l1.46875 0l0 1.46875q0.5625 -1.03125 1.03125 -1.359375q0.484375 -0.328125 1.0625 -0.328125q0.828125 0 1.6875 0.53125l-0.5625 1.515625q-0.609375 -0.359375 -1.203125 -0.359375q-0.546875 0 -0.96875 0.328125q-0.421875 0.328125 -0.609375 0.890625q-0.28125 0.875 -0.28125 1.921875l0 5.0625l-1.625 0zm12.540802 -1.1875q-0.921875 0.765625 -1.765625 1.09375q-0.828125 0.3125 -1.796875 0.3125q-1.59375 0 -2.453125 -0.78125q-0.859375 -0.78125 -0.859375 -1.984375q0 -0.71875 0.328125 -1.296875q0.328125 -0.59375 0.84375 -0.9375q0.53125 -0.359375 1.1875 -0.546875q0.46875 -0.125 1.453125 -0.25q1.984375 -0.234375 2.921875 -0.5625q0.015625 -0.34375 0.015625 -0.421875q0 -1.0 -0.46875 -1.421875q-0.625 -0.546875 -1.875 -0.546875q-1.15625 0 -1.703125 0.40625q-0.546875 0.40625 -0.8125 1.421875l-1.609375 -0.21875q0.21875 -1.015625 0.71875 -1.640625q0.5 -0.640625 1.453125 -0.984375q0.953125 -0.34375 2.1875 -0.34375q1.25 0 2.015625 0.296875q0.78125 0.28125 1.140625 0.734375q0.375 0.4375 0.515625 1.109375q0.078125 0.421875 0.078125 1.515625l0 2.1875q0 2.28125 0.109375 2.890625q0.109375 0.59375 0.40625 1.15625l-1.703125 0q-0.265625 -0.515625 -0.328125 -1.1875zm-0.140625 -3.671875q-0.890625 0.375 -2.671875 0.625q-1.015625 0.140625 -1.4375 0.328125q-0.421875 0.1875 -0.65625 0.53125q-0.21875 0.34375 -0.21875 0.78125q0 0.65625 0.5 1.09375q0.5 0.4375 1.453125 0.4375q0.9375 0 1.671875 -0.40625q0.75 -0.421875 1.09375 -1.140625q0.265625 -0.5625 0.265625 -1.640625l0 -0.609375zm4.203842 4.859375l0 -9.671875l1.46875 0l0 1.359375q0.453125 -0.71875 1.203125 -1.140625q0.765625 -0.4375 1.7187347 -0.4375q1.078125 0 1.765625 0.453125q0.6875 0.4375 0.96875 1.234375q1.15625 -1.6875 2.984375 -1.6875q1.453125 0 2.21875 0.796875q0.78125 0.796875 0.78125 2.453125l0 6.640625l-1.640625 0l0 -6.09375q0 -0.984375 -0.15625 -1.40625q-0.15625 -0.4375 -0.578125 -0.703125q-0.421875 -0.265625 -0.984375 -0.265625q-1.015625 0 -1.6875 0.6875q-0.671875 0.671875 -0.671875 2.15625l0 5.625l-1.640625 0l0 -6.28125q0 -1.09375 -0.40625 -1.640625q-0.40625 -0.546875 -1.3125 -0.546875q-0.68748474 0 -1.2812347 0.359375q-0.59375 0.359375 -0.859375 1.0625q-0.25 0.703125 -0.25 2.03125l0 5.015625l-1.640625 0z" fill-rule="nonzero"></path><path fill="#ffffff" d="m16.329397 174.63387l0 0c0 -14.002823 11.351521 -25.35434 25.35433 -25.35434c14.002811 0 25.354328 11.351517 25.354328 25.35434c0 14.002808 -11.351517 25.354324 -25.354328 25.354324c-14.00281 0 -25.35433 -11.351517 -25.35433 -25.354324z" fill-rule="evenodd"></path><path fill="#cbcbcb" d="m30.919874 167.05104c0 -1.4586334 1.1824512 -2.6410828 2.641077 -2.6410828c1.4586258 0 2.6410751 1.1824493 2.6410751 2.6410828c0 1.4586182 -1.1824493 2.6410675 -2.6410751 2.6410675c-1.4586258 0 -2.641077 -1.1824493 -2.641077 -2.6410675m16.245554 0c0 -1.4586334 1.1824493 -2.6410828 2.6410751 -2.6410828c1.4586258 0 2.6410751 1.1824493 2.6410751 2.6410828c0 1.4586182 -1.1824493 2.6410675 -2.6410751 2.6410675c-1.4586258 0 -2.6410751 -1.1824493 -2.6410751 -2.6410675" fill-rule="evenodd"></path><path fill="#000000" fill-opacity="0.0" d="m27.941513 185.69106q13.742214 9.437897 27.452335 0" fill-rule="evenodd"></path><path fill="#000000" fill-opacity="0.0" d="m16.329397 174.63387l0 0c0 -14.002823 11.351521 -25.35434 25.35433 -25.35434c14.002811 0 25.354328 11.351517 25.354328 25.35434c0 14.002808 -11.351517 25.354324 -25.354328 25.354324c-14.00281 0 -25.35433 -11.351517 -25.35433 -25.354324z" fill-rule="evenodd"></path><path stroke="#000000" stroke-width="1.0" stroke-linejoin="round" stroke-linecap="butt" d="m30.919874 167.05104c0 -1.4586334 1.1824512 -2.6410828 2.641077 -2.6410828c1.4586258 0 2.6410751 1.1824493 2.6410751 2.6410828c0 1.4586182 -1.1824493 2.6410675 -2.6410751 2.6410675c-1.4586258 0 -2.641077 -1.1824493 -2.641077 -2.6410675m16.245554 0c0 -1.4586334 1.1824493 -2.6410828 2.6410751 -2.6410828c1.4586258 0 2.6410751 1.1824493 2.6410751 2.6410828c0 1.4586182 -1.1824493 2.6410675 -2.6410751 2.6410675c-1.4586258 0 -2.6410751 -1.1824493 -2.6410751 -2.6410675" fill-rule="evenodd"></path><path stroke="#000000" stroke-width="1.0" stroke-linejoin="round" stroke-linecap="butt" d="m27.941513 185.69106q13.742214 9.437897 27.452335 0" fill-rule="evenodd"></path><path stroke="#000000" stroke-width="1.0" stroke-linejoin="round" stroke-linecap="butt" d="m16.329397 174.63387l0 0c0 -14.002823 11.351521 -25.35434 25.35433 -25.35434c14.002811 0 25.354328 11.351517 25.354328 25.35434c0 14.002808 -11.351517 25.354324 -25.354328 25.354324c-14.00281 0 -25.35433 -11.351517 -25.35433 -25.354324z" fill-rule="evenodd"></path><path fill="#000000" fill-opacity="0.0" d="m67.038055 174.63387l87.622055 0" fill-rule="evenodd"></path><path stroke="#000000" stroke-width="1.0" stroke-linejoin="round" stroke-linecap="butt" d="m67.038055 174.63387l81.622055 0" fill-rule="evenodd"></path><path fill="#000000" stroke="#000000" stroke-width="1.0" stroke-linecap="butt" d="m148.66011 176.28558l4.538086 -1.6517181l-4.538086 -1.6517334z" fill-rule="evenodd"></path><path fill="#f4cccc" d="m154.66011 279.5525l139.46959 0l11.743011 11.743011l0 58.713684l-151.2126 0z" fill-rule="evenodd"></path><path stroke="#000000" stroke-width="1.0" stroke-linejoin="round" stroke-linecap="butt" d="m154.66011 279.5525l139.46959 0l11.743011 11.743011l0 58.713684l-151.2126 0z" fill-rule="evenodd"></path><path fill="#000000" d="m221.2432 324.6366l0 -1.875l1.875 0l0 1.875l-1.875 0zm5.183304 0l0 -1.875l1.875 0l0 1.875l-1.875 0zm5.183304 0l0 -1.875l1.875 0l0 1.875l-1.875 0z" fill-rule="nonzero"></path><path fill="#ffffff" d="m16.329397 314.78085l0 0c0 -14.002838 11.351521 -25.35434 25.35433 -25.35434c14.002811 0 25.354328 11.351501 25.354328 25.35434c0 14.002808 -11.351517 25.35431 -25.354328 25.35431c-14.00281 0 -25.35433 -11.351501 -25.35433 -25.35431z" fill-rule="evenodd"></path><path fill="#cbcbcb" d="m30.919874 307.19803c0 -1.4586487 1.1824512 -2.6410828 2.641077 -2.6410828c1.4586258 0 2.6410751 1.1824341 2.6410751 2.6410828c0 1.4586182 -1.1824493 2.6410522 -2.6410751 2.6410522c-1.4586258 0 -2.641077 -1.1824341 -2.641077 -2.6410522m16.245554 0c0 -1.4586487 1.1824493 -2.6410828 2.6410751 -2.6410828c1.4586258 0 2.6410751 1.1824341 2.6410751 2.6410828c0 1.4586182 -1.1824493 2.6410522 -2.6410751 2.6410522c-1.4586258 0 -2.6410751 -1.1824341 -2.6410751 -2.6410522" fill-rule="evenodd"></path><path fill="#000000" fill-opacity="0.0" d="m27.941513 325.83804q13.742214 9.437897 27.452335 0" fill-rule="evenodd"></path><path fill="#000000" fill-opacity="0.0" d="m16.329397 314.78085l0 0c0 -14.002838 11.351521 -25.35434 25.35433 -25.35434c14.002811 0 25.354328 11.351501 25.354328 25.35434c0 14.002808 -11.351517 25.35431 -25.354328 25.35431c-14.00281 0 -25.35433 -11.351501 -25.35433 -25.35431z" fill-rule="evenodd"></path><path stroke="#000000" stroke-width="1.0" stroke-linejoin="round" stroke-linecap="butt" d="m30.919874 307.19803c0 -1.4586487 1.1824512 -2.6410828 2.641077 -2.6410828c1.4586258 0 2.6410751 1.1824341 2.6410751 2.6410828c0 1.4586182 -1.1824493 2.6410522 -2.6410751 2.6410522c-1.4586258 0 -2.641077 -1.1824341 -2.641077 -2.6410522m16.245554 0c0 -1.4586487 1.1824493 -2.6410828 2.6410751 -2.6410828c1.4586258 0 2.6410751 1.1824341 2.6410751 2.6410828c0 1.4586182 -1.1824493 2.6410522 -2.6410751 2.6410522c-1.4586258 0 -2.6410751 -1.1824341 -2.6410751 -2.6410522" fill-rule="evenodd"></path><path stroke="#000000" stroke-width="1.0" stroke-linejoin="round" stroke-linecap="butt" d="m27.941513 325.83804q13.742214 9.437897 27.452335 0" fill-rule="evenodd"></path><path stroke="#000000" stroke-width="1.0" stroke-linejoin="round" stroke-linecap="butt" d="m16.329397 314.78085l0 0c0 -14.002838 11.351521 -25.35434 25.35433 -25.35434c14.002811 0 25.354328 11.351501 25.354328 25.35434c0 14.002808 -11.351517 25.35431 -25.354328 25.35431c-14.00281 0 -25.35433 -11.351501 -25.35433 -25.35431z" fill-rule="evenodd"></path><path fill="#000000" fill-opacity="0.0" d="m67.038055 314.78085l87.622055 0" fill-rule="evenodd"></path><path stroke="#000000" stroke-width="1.0" stroke-linejoin="round" stroke-linecap="butt" d="m67.038055 314.78085l81.622055 0" fill-rule="evenodd"></path><path fill="#000000" stroke="#000000" stroke-width="1.0" stroke-linecap="butt" d="m148.66011 316.4326l4.538086 -1.6517334l-4.538086 -1.6517334z" fill-rule="evenodd"></path><path fill="#000000" fill-opacity="0.0" d="m305.8727 174.63387c42.100677 0 63.150177 0.01574707 84.201355 0.03149414c21.051178 0.01574707 42.104034 0.03149414 84.2081 0.03149414" fill-rule="evenodd"></path><path stroke="#000000" stroke-width="1.0" stroke-linejoin="round" stroke-linecap="butt" d="m305.8727 174.63387c42.100677 0 63.150177 0.01574707 84.201355 0.03149414c10.525604 0.007873535 21.051605 0.01574707 34.20923 0.021652222c6.5787964 0.0029449463 13.815491 0.00541687 22.039001 0.0071258545l21.95987 0.0021362305" fill-rule="evenodd"></path><path fill="#000000" stroke="#000000" stroke-width="1.0" stroke-linecap="butt" d="m468.28198 176.348l4.538269 -1.6512909l-4.5379333 -1.6521759z" fill-rule="evenodd"></path><path fill="#000000" fill-opacity="0.0" d="m305.8727 314.78085c42.100677 0 63.150177 -35.0394 84.201355 -70.07875c21.051178 -35.039368 42.104034 -70.07875 84.2081 -70.07875" fill-rule="evenodd"></path><path stroke="#000000" stroke-width="1.0" stroke-linejoin="round" stroke-linecap="butt" d="m305.8727 314.78085c42.100677 0 63.150177 -35.0394 84.201355 -70.07875c10.525604 -17.519684 21.051605 -35.039368 34.20923 -48.17914c6.5787964 -6.5698853 13.815491 -12.044785 22.039001 -15.877213c4.1117554 -1.916214 8.470245 -3.421814 13.116516 -4.4483643c2.32312 -0.51327515 4.718231 -0.9067688 7.1903687 -1.1719666c0.3090515 -0.03315735 0.6192627 -0.06430054 0.9306946 -0.09341431l0.72732544 -0.06303406" fill-rule="evenodd"></path><path fill="#000000" stroke="#000000" stroke-width="1.0" stroke-linecap="butt" d="m468.3548 176.51933l4.466675 -1.8361206l-4.601898 -1.4645844z" fill-rule="evenodd"></path><path fill="#fce5cd" d="m789.59973 38.088177l0 0c0 -6.9609547 5.6430054 -12.603926 12.603943 -12.603926l191.29608 0c3.3427734 0 6.548645 1.3279114 8.9122925 3.6916065c2.3637085 2.3636932 3.6916504 5.5695534 3.6916504 8.912319l0 50.414196c0 6.9609528 -5.6430054 12.603928 -12.603943 12.603928l-191.29608 0c-6.9609375 0 -12.603943 -5.642975 -12.603943 -12.603928z" fill-rule="evenodd"></path><path stroke="#000000" stroke-width="1.0" stroke-linejoin="round" stroke-linecap="butt" d="m789.59973 38.088177l0 0c0 -6.9609547 5.6430054 -12.603926 12.603943 -12.603926l191.29608 0c3.3427734 0 6.548645 1.3279114 8.9122925 3.6916065c2.3637085 2.3636932 3.6916504 5.5695534 3.6916504 8.912319l0 50.414196c0 6.9609528 -5.6430054 12.603928 -12.603943 12.603928l-191.29608 0c-6.9609375 0 -12.603943 -5.642975 -12.603943 -12.603928z" fill-rule="evenodd"></path><path fill="#000000" d="m835.9547 70.21528l0 -13.359379l5.015625 0q1.53125 0 2.453125 0.40625q0.921875 0.40625 1.4375 1.25q0.53125 0.84375 0.53125 1.765625q0 0.859375 -0.46875 1.625q-0.453125 0.75 -1.390625 1.203125q1.203125 0.359375 1.859375 1.2187538q0.65625 0.859375 0.65625 2.015625q0 0.9375 -0.40625 1.75q-0.390625 0.796875 -0.984375 1.234375q-0.578125 0.4375 -1.453125 0.671875q-0.875 0.21875 -2.15625 0.21875l-5.09375 0zm1.78125 -7.750004l2.875 0q1.1875 0 1.6875 -0.140625q0.671875 -0.203125 1.015625 -0.671875q0.34375 -0.46875 0.34375 -1.171875q0 -0.65625 -0.328125 -1.15625q-0.3125 -0.515625 -0.90625 -0.703125q-0.59375 -0.1875 -2.03125 -0.1875l-2.65625 0l0 4.03125zm0 6.171879l3.3125 0q0.859375 0 1.203125 -0.0625q0.609375 -0.109375 1.015625 -0.359375q0.421875 -0.265625 0.6875 -0.75q0.265625 -0.484375 0.265625 -1.125q0 -0.75 -0.390625 -1.296875q-0.375 -0.546875 -1.0625 -0.765625q-0.671875 -0.234375 -1.953125 -0.234375l-3.078125 0l0 4.59375zm16.865479 1.578125l0 -1.421875q-1.125 1.640625 -3.0625 1.640625q-0.859375 0 -1.609375 -0.328125q-0.734375 -0.328125 -1.09375 -0.828125q-0.359375 -0.5 -0.5 -1.21875q-0.109375 -0.46875 -0.109375 -1.53125l0 -5.984379l1.640625 0l0 5.359379q0 1.28125 0.109375 1.734375q0.15625 0.640625 0.65625 1.015625q0.5 0.375 1.234375 0.375q0.734375 0 1.375 -0.375q0.65625 -0.390625 0.921875 -1.03125q0.265625 -0.65625 0.265625 -1.890625l0 -5.187504l1.640625 0l0 9.671879l-1.46875 0zm3.3913574 -2.890625l1.625 -0.25q0.125 0.96875 0.75 1.5q0.625 0.515625 1.75 0.515625q1.125 0 1.671875 -0.453125q0.546875 -0.46875 0.546875 -1.09375q0 -0.546875 -0.484375 -0.875q-0.328125 -0.21875 -1.671875 -0.546875q-1.8125 -0.46875 -2.515625 -0.796875q-0.6875 -0.328125 -1.046875 -0.90625q-0.359375 -0.5937538 -0.359375 -1.3125038q0 -0.640625 0.296875 -1.1875q0.296875 -0.5625 0.8125 -0.921875q0.375 -0.28125 1.03125 -0.46875q0.671875 -0.203125 1.421875 -0.203125q1.140625 0 2.0 0.328125q0.859375 0.328125 1.265625 0.890625q0.421875 0.5625 0.578125 1.5l-1.609375 0.21875q-0.109375 -0.75 -0.640625 -1.171875q-0.515625 -0.421875 -1.46875 -0.421875q-1.140625 0 -1.625 0.375q-0.46875 0.375 -0.46875 0.875q0 0.3125 0.1875 0.578125q0.203125 0.265625 0.640625 0.4375q0.234375 0.093753815 1.4375 0.4218788q1.75 0.453125 2.4375 0.75q0.6875 0.296875 1.078125 0.859375q0.390625 0.5625 0.390625 1.40625q0 0.828125 -0.484375 1.546875q-0.46875 0.71875 -1.375 1.125q-0.90625 0.390625 -2.046875 0.390625q-1.875 0 -2.875 -0.78125q-0.984375 -0.78125 -1.25 -2.328125zm9.984375 -8.578129l0 -1.890625l1.640625 0l0 1.890625l-1.640625 0zm0 11.468754l0 -9.671879l1.640625 0l0 9.671879l-1.640625 0zm4.1447754 0l0 -9.671879l1.46875 0l0 1.375q1.0625 -1.59375 3.078125 -1.59375q0.875 0 1.609375 0.3125q0.734375 0.3125 1.09375 0.828125q0.375 0.5 0.515625 1.203125q0.09375 0.453125 0.09375 1.5937538l0 5.953125l-1.640625 0l0 -5.890625q0 -1.0000038 -0.203125 -1.4843788q-0.1875 -0.5 -0.671875 -0.796875q-0.484375 -0.296875 -1.140625 -0.296875q-1.046875 0 -1.8125 0.671875q-0.75 0.65625 -0.75 2.5156288l0 5.28125l-1.640625 0zm17.000732 -3.109375l1.6875 0.203125q-0.40625 1.484375 -1.484375 2.3125q-1.078125 0.8125 -2.765625 0.8125q-2.125 0 -3.375 -1.296875q-1.234375 -1.3125 -1.234375 -3.671875q0 -2.4531288 1.25 -3.7968788q1.265625 -1.34375 3.265625 -1.34375q1.9375 0 3.15625 1.328125q1.234375 1.3125 1.234375 3.7031288q0 0.15625 0 0.4375l-7.21875 0q0.09375 1.59375 0.90625 2.453125q0.8125 0.84375 2.015625 0.84375q0.90625 0 1.546875 -0.46875q0.640625 -0.484375 1.015625 -1.515625zm-5.390625 -2.65625l5.40625 0q-0.109375 -1.2187538 -0.625 -1.8281288q-0.78125 -0.953125 -2.03125 -0.953125q-1.125 0 -1.90625 0.765625q-0.765625 0.75 -0.84375 2.0156288zm8.485107 2.875l1.625 -0.25q0.125 0.96875 0.75 1.5q0.625 0.515625 1.75 0.515625q1.125 0 1.671875 -0.453125q0.546875 -0.46875 0.546875 -1.09375q0 -0.546875 -0.484375 -0.875q-0.328125 -0.21875 -1.671875 -0.546875q-1.8125 -0.46875 -2.515625 -0.796875q-0.6875 -0.328125 -1.046875 -0.90625q-0.359375 -0.5937538 -0.359375 -1.3125038q0 -0.640625 0.296875 -1.1875q0.296875 -0.5625 0.8125 -0.921875q0.375 -0.28125 1.03125 -0.46875q0.671875 -0.203125 1.421875 -0.203125q1.140625 0 2.0 0.328125q0.859375 0.328125 1.265625 0.890625q0.421875 0.5625 0.578125 1.5l-1.609375 0.21875q-0.109375 -0.75 -0.640625 -1.171875q-0.515625 -0.421875 -1.46875 -0.421875q-1.140625 0 -1.625 0.375q-0.46875 0.375 -0.46875 0.875q0 0.3125 0.1875 0.578125q0.203125 0.265625 0.640625 0.4375q0.234375 0.093753815 1.4375 0.4218788q1.75 0.453125 2.4375 0.75q0.6875 0.296875 1.078125 0.859375q0.390625 0.5625 0.390625 1.40625q0 0.828125 -0.484375 1.546875q-0.46875 0.71875 -1.375 1.125q-0.90625 0.390625 -2.046875 0.390625q-1.875 0 -2.875 -0.78125q-0.984375 -0.78125 -1.25 -2.328125zm9.328125 0l1.625 -0.25q0.125 0.96875 0.75 1.5q0.625 0.515625 1.75 0.515625q1.125 0 1.671875 -0.453125q0.546875 -0.46875 0.546875 -1.09375q0 -0.546875 -0.484375 -0.875q-0.328125 -0.21875 -1.671875 -0.546875q-1.8125 -0.46875 -2.515625 -0.796875q-0.6875 -0.328125 -1.046875 -0.90625q-0.359375 -0.5937538 -0.359375 -1.3125038q0 -0.640625 0.296875 -1.1875q0.296875 -0.5625 0.8125 -0.921875q0.375 -0.28125 1.03125 -0.46875q0.671875 -0.203125 1.421875 -0.203125q1.140625 0 2.0 0.328125q0.859375 0.328125 1.265625 0.890625q0.421875 0.5625 0.578125 1.5l-1.609375 0.21875q-0.109375 -0.75 -0.640625 -1.171875q-0.515625 -0.421875 -1.46875 -0.421875q-1.140625 0 -1.625 0.375q-0.46875 0.375 -0.46875 0.875q0 0.3125 0.1875 0.578125q0.203125 0.265625 0.640625 0.4375q0.234375 0.093753815 1.4375 0.4218788q1.75 0.453125 2.4375 0.75q0.6875 0.296875 1.078125 0.859375q0.390625 0.5625 0.390625 1.40625q0 0.828125 -0.484375 1.546875q-0.46875 0.71875 -1.375 1.125q-0.90625 0.390625 -2.046875 0.390625q-1.875 0 -2.875 -0.78125q-0.984375 -0.78125 -1.25 -2.328125zm13.902039 2.890625l5.125 -13.359379l1.90625 0l5.46875 13.359379l-2.015625 0l-1.546875 -4.046875l-5.59375 0l-1.46875 4.046875l-1.875 0zm3.859375 -5.484375l4.53125 0l-1.40625 -3.7031288q-0.625 -1.6875 -0.9375 -2.765625q-0.265625 1.28125 -0.71875 2.546875l-1.46875 3.9218788zm10.0529785 5.484375l0 -13.359379l5.046875 0q1.328125 0 2.03125 0.125q0.96875 0.171875 1.640625 0.640625q0.671875 0.453125 1.078125 1.28125q0.40625 0.828125 0.40625 1.828125q0 1.703125 -1.09375 2.890625q-1.078125 1.1718788 -3.921875 1.1718788l-3.421875 0l0 5.421875l-1.765625 0zm1.765625 -7.000004l3.453125 0q1.71875 0 2.4375 -0.640625q0.71875 -0.640625 0.71875 -1.796875q0 -0.84375 -0.421875 -1.4375q-0.421875 -0.59375 -1.125 -0.78125q-0.4375 -0.125 -1.640625 -0.125l-3.421875 0l0 4.78125zm10.9747925 7.000004l0 -13.359379l1.765625 0l0 13.359379l-1.765625 0zm15.585388 0l-1.640625 0l0 -10.453129q-0.59375 0.5625 -1.5625 1.140625q-0.953125 0.5625 -1.71875 0.84375l0 -1.59375q1.375 -0.640625 2.40625 -1.5625q1.03125 -0.921875 1.453125 -1.78125l1.0625 0l0 13.406254z" fill-rule="nonzero"></path><path fill="#fce5cd" d="m789.59973 149.45825l0 0c0 -6.9609528 5.6430054 -12.603928 12.603943 -12.603928l191.29608 0c3.3427734 0 6.548645 1.3279114 8.9122925 3.6916046c2.3637085 2.3637085 3.6916504 5.569565 3.6916504 8.912323l0 50.4142c0 6.9609528 -5.6430054 12.603928 -12.603943 12.603928l-191.29608 0c-6.9609375 0 -12.603943 -5.642975 -12.603943 -12.603928z" fill-rule="evenodd"></path><path stroke="#000000" stroke-width="1.0" stroke-linejoin="round" stroke-linecap="butt" d="m789.59973 149.45825l0 0c0 -6.9609528 5.6430054 -12.603928 12.603943 -12.603928l191.29608 0c3.3427734 0 6.548645 1.3279114 8.9122925 3.6916046c2.3637085 2.3637085 3.6916504 5.569565 3.6916504 8.912323l0 50.4142c0 6.9609528 -5.6430054 12.603928 -12.603943 12.603928l-191.29608 0c-6.9609375 0 -12.603943 -5.642975 -12.603943 -12.603928z" fill-rule="evenodd"></path><path fill="#000000" d="m835.9547 181.58536l0 -13.359375l5.015625 0q1.53125 0 2.453125 0.40625q0.921875 0.40625 1.4375 1.25q0.53125 0.84375 0.53125 1.765625q0 0.859375 -0.46875 1.625q-0.453125 0.75 -1.390625 1.203125q1.203125 0.359375 1.859375 1.21875q0.65625 0.859375 0.65625 2.015625q0 0.9375 -0.40625 1.75q-0.390625 0.796875 -0.984375 1.234375q-0.578125 0.4375 -1.453125 0.671875q-0.875 0.21875 -2.15625 0.21875l-5.09375 0zm1.78125 -7.75l2.875 0q1.1875 0 1.6875 -0.140625q0.671875 -0.203125 1.015625 -0.671875q0.34375 -0.46875 0.34375 -1.171875q0 -0.65625 -0.328125 -1.15625q-0.3125 -0.515625 -0.90625 -0.703125q-0.59375 -0.1875 -2.03125 -0.1875l-2.65625 0l0 4.03125zm0 6.171875l3.3125 0q0.859375 0 1.203125 -0.0625q0.609375 -0.109375 1.015625 -0.359375q0.421875 -0.265625 0.6875 -0.75q0.265625 -0.484375 0.265625 -1.125q0 -0.75 -0.390625 -1.296875q-0.375 -0.546875 -1.0625 -0.765625q-0.671875 -0.234375 -1.953125 -0.234375l-3.078125 0l0 4.59375zm16.865479 1.578125l0 -1.421875q-1.125 1.640625 -3.0625 1.640625q-0.859375 0 -1.609375 -0.328125q-0.734375 -0.328125 -1.09375 -0.828125q-0.359375 -0.5 -0.5 -1.21875q-0.109375 -0.46875 -0.109375 -1.53125l0 -5.984375l1.640625 0l0 5.359375q0 1.28125 0.109375 1.734375q0.15625 0.640625 0.65625 1.015625q0.5 0.375 1.234375 0.375q0.734375 0 1.375 -0.375q0.65625 -0.390625 0.921875 -1.03125q0.265625 -0.65625 0.265625 -1.890625l0 -5.1875l1.640625 0l0 9.671875l-1.46875 0zm3.3913574 -2.890625l1.625 -0.25q0.125 0.96875 0.75 1.5q0.625 0.515625 1.75 0.515625q1.125 0 1.671875 -0.453125q0.546875 -0.46875 0.546875 -1.09375q0 -0.546875 -0.484375 -0.875q-0.328125 -0.21875 -1.671875 -0.546875q-1.8125 -0.46875 -2.515625 -0.796875q-0.6875 -0.328125 -1.046875 -0.90625q-0.359375 -0.59375 -0.359375 -1.3125q0 -0.640625 0.296875 -1.1875q0.296875 -0.5625 0.8125 -0.921875q0.375 -0.28125 1.03125 -0.46875q0.671875 -0.203125 1.421875 -0.203125q1.140625 0 2.0 0.328125q0.859375 0.328125 1.265625 0.890625q0.421875 0.5625 0.578125 1.5l-1.609375 0.21875q-0.109375 -0.75 -0.640625 -1.171875q-0.515625 -0.421875 -1.46875 -0.421875q-1.140625 0 -1.625 0.375q-0.46875 0.375 -0.46875 0.875q0 0.3125 0.1875 0.578125q0.203125 0.265625 0.640625 0.4375q0.234375 0.09375 1.4375 0.421875q1.75 0.453125 2.4375 0.75q0.6875 0.296875 1.078125 0.859375q0.390625 0.5625 0.390625 1.40625q0 0.828125 -0.484375 1.546875q-0.46875 0.71875 -1.375 1.125q-0.90625 0.390625 -2.046875 0.390625q-1.875 0 -2.875 -0.78125q-0.984375 -0.78125 -1.25 -2.328125zm9.984375 -8.578125l0 -1.890625l1.640625 0l0 1.890625l-1.640625 0zm0 11.46875l0 -9.671875l1.640625 0l0 9.671875l-1.640625 0zm4.1447754 0l0 -9.671875l1.46875 0l0 1.375q1.0625 -1.59375 3.078125 -1.59375q0.875 0 1.609375 0.3125q0.734375 0.3125 1.09375 0.828125q0.375 0.5 0.515625 1.203125q0.09375 0.453125 0.09375 1.59375l0 5.953125l-1.640625 0l0 -5.890625q0 -1.0 -0.203125 -1.484375q-0.1875 -0.5 -0.671875 -0.796875q-0.484375 -0.296875 -1.140625 -0.296875q-1.046875 0 -1.8125 0.671875q-0.75 0.65625 -0.75 2.515625l0 5.28125l-1.640625 0zm17.000732 -3.109375l1.6875 0.203125q-0.40625 1.484375 -1.484375 2.3125q-1.078125 0.8125 -2.765625 0.8125q-2.125 0 -3.375 -1.296875q-1.234375 -1.3125 -1.234375 -3.671875q0 -2.453125 1.25 -3.796875q1.265625 -1.34375 3.265625 -1.34375q1.9375 0 3.15625 1.328125q1.234375 1.3125 1.234375 3.703125q0 0.15625 0 0.4375l-7.21875 0q0.09375 1.59375 0.90625 2.453125q0.8125 0.84375 2.015625 0.84375q0.90625 0 1.546875 -0.46875q0.640625 -0.484375 1.015625 -1.515625zm-5.390625 -2.65625l5.40625 0q-0.109375 -1.21875 -0.625 -1.828125q-0.78125 -0.953125 -2.03125 -0.953125q-1.125 0 -1.90625 0.765625q-0.765625 0.75 -0.84375 2.015625zm8.485107 2.875l1.625 -0.25q0.125 0.96875 0.75 1.5q0.625 0.515625 1.75 0.515625q1.125 0 1.671875 -0.453125q0.546875 -0.46875 0.546875 -1.09375q0 -0.546875 -0.484375 -0.875q-0.328125 -0.21875 -1.671875 -0.546875q-1.8125 -0.46875 -2.515625 -0.796875q-0.6875 -0.328125 -1.046875 -0.90625q-0.359375 -0.59375 -0.359375 -1.3125q0 -0.640625 0.296875 -1.1875q0.296875 -0.5625 0.8125 -0.921875q0.375 -0.28125 1.03125 -0.46875q0.671875 -0.203125 1.421875 -0.203125q1.140625 0 2.0 0.328125q0.859375 0.328125 1.265625 0.890625q0.421875 0.5625 0.578125 1.5l-1.609375 0.21875q-0.109375 -0.75 -0.640625 -1.171875q-0.515625 -0.421875 -1.46875 -0.421875q-1.140625 0 -1.625 0.375q-0.46875 0.375 -0.46875 0.875q0 0.3125 0.1875 0.578125q0.203125 0.265625 0.640625 0.4375q0.234375 0.09375 1.4375 0.421875q1.75 0.453125 2.4375 0.75q0.6875 0.296875 1.078125 0.859375q0.390625 0.5625 0.390625 1.40625q0 0.828125 -0.484375 1.546875q-0.46875 0.71875 -1.375 1.125q-0.90625 0.390625 -2.046875 0.390625q-1.875 0 -2.875 -0.78125q-0.984375 -0.78125 -1.25 -2.328125zm9.328125 0l1.625 -0.25q0.125 0.96875 0.75 1.5q0.625 0.515625 1.75 0.515625q1.125 0 1.671875 -0.453125q0.546875 -0.46875 0.546875 -1.09375q0 -0.546875 -0.484375 -0.875q-0.328125 -0.21875 -1.671875 -0.546875q-1.8125 -0.46875 -2.515625 -0.796875q-0.6875 -0.328125 -1.046875 -0.90625q-0.359375 -0.59375 -0.359375 -1.3125q0 -0.640625 0.296875 -1.1875q0.296875 -0.5625 0.8125 -0.921875q0.375 -0.28125 1.03125 -0.46875q0.671875 -0.203125 1.421875 -0.203125q1.140625 0 2.0 0.328125q0.859375 0.328125 1.265625 0.890625q0.421875 0.5625 0.578125 1.5l-1.609375 0.21875q-0.109375 -0.75 -0.640625 -1.171875q-0.515625 -0.421875 -1.46875 -0.421875q-1.140625 0 -1.625 0.375q-0.46875 0.375 -0.46875 0.875q0 0.3125 0.1875 0.578125q0.203125 0.265625 0.640625 0.4375q0.234375 0.09375 1.4375 0.421875q1.75 0.453125 2.4375 0.75q0.6875 0.296875 1.078125 0.859375q0.390625 0.5625 0.390625 1.40625q0 0.828125 -0.484375 1.546875q-0.46875 0.71875 -1.375 1.125q-0.90625 0.390625 -2.046875 0.390625q-1.875 0 -2.875 -0.78125q-0.984375 -0.78125 -1.25 -2.328125zm13.902039 2.890625l5.125 -13.359375l1.90625 0l5.46875 13.359375l-2.015625 0l-1.546875 -4.046875l-5.59375 0l-1.46875 4.046875l-1.875 0zm3.859375 -5.484375l4.53125 0l-1.40625 -3.703125q-0.625 -1.6875 -0.9375 -2.765625q-0.265625 1.28125 -0.71875 2.546875l-1.46875 3.921875zm10.0529785 5.484375l0 -13.359375l5.046875 0q1.328125 0 2.03125 0.125q0.96875 0.171875 1.640625 0.640625q0.671875 0.453125 1.078125 1.28125q0.40625 0.828125 0.40625 1.828125q0 1.703125 -1.09375 2.890625q-1.078125 1.171875 -3.921875 1.171875l-3.421875 0l0 5.421875l-1.765625 0zm1.765625 -7.0l3.453125 0q1.71875 0 2.4375 -0.640625q0.71875 -0.640625 0.71875 -1.796875q0 -0.84375 -0.421875 -1.4375q-0.421875 -0.59375 -1.125 -0.78125q-0.4375 -0.125 -1.640625 -0.125l-3.421875 0l0 4.78125zm10.9747925 7.0l0 -13.359375l1.765625 0l0 13.359375l-1.765625 0zm18.022888 -1.578125l0 1.578125l-8.828125 0q-0.015625 -0.59375 0.1875 -1.140625q0.34375 -0.90625 1.078125 -1.78125q0.75 -0.875 2.15625 -2.015625q2.171875 -1.78125 2.9375 -2.828125q0.765625 -1.046875 0.765625 -1.96875q0 -0.984375 -0.703125 -1.640625q-0.6875 -0.671875 -1.8125 -0.671875q-1.1875 0 -1.90625 0.71875q-0.703125 0.703125 -0.703125 1.953125l-1.6875 -0.171875q0.171875 -1.890625 1.296875 -2.875q1.140625 -0.984375 3.03125 -0.984375q1.921875 0 3.046875 1.0625q1.125 1.0625 1.125 2.640625q0 0.796875 -0.328125 1.578125q-0.328125 0.78125 -1.09375 1.640625q-0.75 0.84375 -2.53125 2.34375q-1.46875 1.234375 -1.890625 1.6875q-0.421875 0.4375 -0.6875 0.875l6.546875 0z" fill-rule="nonzero"></path><path fill="#fce5cd" d="m789.59973 260.82834l0 0c0 -6.9609528 5.6430054 -12.603928 12.603943 -12.603928l191.29608 0c3.3427734 0 6.548645 1.3279114 8.9122925 3.6916046c2.3637085 2.3636932 3.6916504 5.5695496 3.6916504 8.912323l0 50.414185c0 6.960968 -5.6430054 12.603943 -12.603943 12.603943l-191.29608 0c-6.9609375 0 -12.603943 -5.642975 -12.603943 -12.603943z" fill-rule="evenodd"></path><path stroke="#000000" stroke-width="1.0" stroke-linejoin="round" stroke-linecap="butt" d="m789.59973 260.82834l0 0c0 -6.9609528 5.6430054 -12.603928 12.603943 -12.603928l191.29608 0c3.3427734 0 6.548645 1.3279114 8.9122925 3.6916046c2.3637085 2.3636932 3.6916504 5.5695496 3.6916504 8.912323l0 50.414185c0 6.960968 -5.6430054 12.603943 -12.603943 12.603943l-191.29608 0c-6.9609375 0 -12.603943 -5.642975 -12.603943 -12.603943z" fill-rule="evenodd"></path><path fill="#000000" d="m891.7642 292.95544l0 -1.875l1.875 0l0 1.875l-1.875 0zm5.1833496 0l0 -1.875l1.875 0l0 1.875l-1.875 0zm5.1832886 0l0 -1.875l1.875 0l0 1.875l-1.875 0z" fill-rule="nonzero"></path><path fill="#000000" fill-opacity="0.0" d="m644.38715 174.63387c36.303467 0 54.45337 -27.834656 72.60693 -55.669296c18.153503 -27.834648 36.31067 -55.669292 72.6214 -55.669292" fill-rule="evenodd"></path><path stroke="#000000" stroke-width="1.0" stroke-linejoin="round" stroke-linecap="butt" d="m644.38715 174.63387c36.303406 0 54.45331 -27.834656 72.60687 -55.669296c9.076782 -13.917328 18.154419 -27.834648 29.50177 -38.272636c5.673645 -5.219002 11.914795 -9.568161 19.006836 -12.612579c3.5460815 -1.5222015 7.3048706 -2.7182236 11.311829 -3.5336914c2.00354 -0.4077301 4.069092 -0.7203293 6.20105 -0.93099594l0.60583496 -0.055999756" fill-rule="evenodd"></path><path fill="#000000" stroke="#000000" stroke-width="1.0" stroke-linecap="butt" d="m783.6938 65.2088l4.4611816 -1.84935l-4.606201 -1.4509277z" fill-rule="evenodd"></path><path fill="#000000" fill-opacity="0.0" d="m644.38715 174.63387c36.303467 0 54.45337 0.01574707 72.60693 0.03149414c18.153503 0.01574707 36.31067 0.03149414 72.6214 0.03149414" fill-rule="evenodd"></path><path stroke="#000000" stroke-width="1.0" stroke-linejoin="round" stroke-linecap="butt" d="m644.38715 174.63387c36.303406 0 54.45331 0.01574707 72.60687 0.03149414c9.076782 0.007873535 18.154419 0.01574707 29.50177 0.021652222c5.673645 0.0029449463 11.914795 0.00541687 19.006836 0.0071258545l18.112854 0.002029419" fill-rule="evenodd"></path><path fill="#000000" stroke="#000000" stroke-width="1.0" stroke-linecap="butt" d="m783.6153 176.34792l4.538269 -1.6512299l-4.537903 -1.6522369z" fill-rule="evenodd"></path><path fill="#000000" fill-opacity="0.0" d="m644.38715 174.63387c36.303467 0 54.45337 27.850388 72.60693 55.700775c18.153503 27.850388 36.31067 55.70079 72.6214 55.70079" fill-rule="evenodd"></path><path stroke="#000000" stroke-width="1.0" stroke-linejoin="round" stroke-linecap="butt" d="m644.38715 174.63387c36.303406 0 54.45331 27.850388 72.60687 55.700775c9.076782 13.925201 18.154419 27.850388 29.50177 38.294296c5.673645 5.2219543 11.914795 9.573578 19.006836 12.61972c3.5460815 1.5230713 7.3048706 2.719757 11.311829 3.535675c2.00354 0.40795898 4.069092 0.72076416 6.20105 0.93151855l0.60583496 0.05606079" fill-rule="evenodd"></path><path fill="#000000" stroke="#000000" stroke-width="1.0" stroke-linecap="butt" d="m783.5487 287.42203l4.606262 -1.4508057l-4.4611206 -1.8494568z" fill-rule="evenodd"></path></g></svg>

